<?xml version="1.0" encoding="UTF-8" standalone="no"?>
<svg
   xmlns:dc="http://purl.org/dc/elements/1.1/"
   xmlns:cc="http://creativecommons.org/ns#"
   xmlns:rdf="http://www.w3.org/1999/02/22-rdf-syntax-ns#"
   xmlns:svg="http://www.w3.org/2000/svg"
   xmlns="http://www.w3.org/2000/svg"
   xmlns:sodipodi="http://sodipodi.sourceforge.net/DTD/sodipodi-0.dtd"
   xmlns:inkscape="http://www.inkscape.org/namespaces/inkscape"
   width="210mm"
   height="297mm"
   viewBox="0 0 210 297"
   version="1.1"
   id="svg8"
   inkscape:version="1.0.1 (3bc2e813f5, 2020-09-07)"
   sodipodi:docname="logo.svg"
   inkscape:export-filename="C:\Users\denni\Documents\Projects\JavaScript\Silkway\web\src\pics\logo.png"
   inkscape:export-xdpi="96"
   inkscape:export-ydpi="96">
  <defs
     id="defs2" />
  <sodipodi:namedview
     id="base"
     pagecolor="#ffffff"
     bordercolor="#666666"
     borderopacity="1.0"
     inkscape:pageopacity="0.0"
     inkscape:pageshadow="2"
     inkscape:zoom="0.70710678"
     inkscape:cx="-65.667946"
     inkscape:cy="439.1547"
     inkscape:document-units="mm"
     inkscape:current-layer="layer1"
     inkscape:document-rotation="0"
     showgrid="false"
     inkscape:window-width="1366"
     inkscape:window-height="705"
     inkscape:window-x="-8"
     inkscape:window-y="-8"
     inkscape:window-maximized="1" />
  <metadata
     id="metadata5">
    <rdf:RDF>
      <cc:Work
         rdf:about="">
        <dc:format>image/svg+xml</dc:format>
        <dc:type
           rdf:resource="http://purl.org/dc/dcmitype/StillImage" />
        <dc:title></dc:title>
      </cc:Work>
    </rdf:RDF>
  </metadata>
  <g
     inkscape:label="Layer 1"
     inkscape:groupmode="layer"
     id="layer1">
    <g
       id="g79"
       transform="translate(-26.657306,-19.42617)">
      <path
         style="fill:#000000;stroke:#000000;stroke-width:0.18646px;stroke-linecap:butt;stroke-linejoin:miter;stroke-opacity:1"
         d="m 81.227082,186.99798 h 0.18646 c -0.406985,-9.89069 2.189717,-17.44949 9.509456,-23.68042 5.764163,-4.67759 11.300002,-9.5835 15.103262,-16.222 0.91409,-2.17901 2.37934,-4.24779 0.93229,-6.89903 4.49612,2.95875 4.45631,7.56692 3.54274,12.49282 -1.93517,8.49816 -6.25347,12.23007 -10.06883,16.96785 -4.627079,5.74372 -7.514267,12.10882 -5.220885,20.32413"
         id="path18"
         sodipodi:nodetypes="cccccccc" />
      <rect
         style="fill:#ffff00;stroke-width:0.160407"
         id="rect20"
         width="2.1187537"
         height="6.1206903"
         x="113.95925"
         y="167.15335"
         transform="matrix(0.99067199,0.13626814,-0.15707417,0.98758681,0,0)" />
      <rect
         style="fill:#ffff00;stroke-width:0.143935"
         id="rect20-0"
         width="1.7202343"
         height="6.0698676"
         x="182.55659"
         y="42.058376"
         transform="matrix(0.66312618,0.74850763,-0.64502444,0.76416194,0,0)" />
      <rect
         style="fill:#ffff00;stroke-width:0.11886"
         id="rect20-2"
         width="1.4380331"
         height="4.9515018"
         x="188.73656"
         y="2.4556305"
         transform="matrix(0.54217924,0.84026286,-0.59898634,0.80075924,0,0)" />
      <rect
         style="fill:#ffff00;stroke-width:0.0844993"
         id="rect20-2-1"
         width="1.0670376"
         height="3.3726029"
         x="162.52069"
         y="78.923874"
         transform="matrix(0.86289165,0.50538896,-0.43103259,0.90233636,0,0)" />
      <rect
         style="fill:#ffff00;stroke-width:0.0790469"
         id="rect20-2-1-1"
         width="1.1091348"
         height="2.8393886"
         x="131.79019"
         y="159.11356"
         transform="matrix(0.99654238,-0.08308606,-0.14473891,0.98946988,0,0)" />
    </g>
    <path
       id="path14-7-6"
       style="fill:#0000ff;stroke:none;stroke-width:0.264583px;stroke-linecap:butt;stroke-linejoin:miter;stroke-opacity:1"
       d="m 54.569776,118.61459 -26.779762,24.81968 26.779762,28.89436 0.159686,-12.61454 -15.38913,-15.44573 15.455276,-12.61032 z"
       sodipodi:nodetypes="ccccccc" />
    <path
       id="path14-7-6-7"
       style="fill:#00ff00;stroke:none;stroke-width:0.265;stroke-linecap:butt;stroke-linejoin:miter;stroke-miterlimit:4;stroke-dasharray:none;stroke-opacity:1"
       d="M 84.291532,118.92727 111.0713,143.74694 84.291532,172.6413 84.30716,159.76155 96.776558,144.47145 84.423824,132.57966 Z"
       sodipodi:nodetypes="ccccccc" />
    <path
       style="fill:none;stroke:#000000;stroke-width:0.264583px;stroke-linecap:butt;stroke-linejoin:miter;stroke-opacity:1"
       d="M 68.554268,170.55516 54.756235,167.57181"
       id="path262" />
  </g>
</svg>
